<?xml version="1.0" encoding="UTF-8"?>
<!DOCTYPE svg PUBLIC "-//W3C//DTD SVG 1.1//EN" "http://www.w3.org/Graphics/SVG/1.1/DTD/svg11.dtd">
<!-- Creator: CorelDRAW -->
<svg xmlns="http://www.w3.org/2000/svg" xml:space="preserve" width="6.82666in" height="6.82666in" style="shape-rendering:geometricPrecision; text-rendering:geometricPrecision; image-rendering:optimizeQuality; fill-rule:evenodd; clip-rule:evenodd"
viewBox="0 0 6.82666 6.82666"
 xmlns:xlink="http://www.w3.org/1999/xlink">
 <defs>
  <style type="text/css">
   <![CDATA[
    .fil2 {fill:none}
    .fil7 {fill:#01579B}
    .fil6 {fill:#0277BD}
    .fil8 {fill:#4FC3F7}
    .fil5 {fill:#607D8B}
    .fil1 {fill:#90A4AE}
    .fil0 {fill:#B0BEC5}
    .fil4 {fill:#D45054}
    .fil3 {fill:#F15C62}
    .fil10 {fill:#FF8F00}
    .fil9 {fill:#FFD54F}
    .fil11 {fill:#DE555E;fill-rule:nonzero}
    .fil12 {fill:#F15C62;fill-rule:nonzero}
   ]]>
  </style>
   <clipPath id="id0">
    <path d="M3.41333 -3.93701e-006c1.88513,0 3.41333,1.5282 3.41333,3.41333 0,1.88513 -1.5282,3.41333 -3.41333,3.41333 -1.88513,0 -3.41333,-1.5282 -3.41333,-3.41333 0,-1.88513 1.5282,-3.41333 3.41333,-3.41333z"/>
   </clipPath>
 </defs>
 <g id="Layer_x0020_1">
  <metadata id="CorelCorpID_0Corel-Layer"/>
  <path class="fil0" d="M3.41333 -3.93701e-006c1.88513,0 3.41333,1.5282 3.41333,3.41333 0,1.88513 -1.5282,3.41333 -3.41333,3.41333 -1.88513,0 -3.41333,-1.5282 -3.41333,-3.41333 0,-1.88513 1.5282,-3.41333 3.41333,-3.41333z"/>
  <g style="clip-path:url(#id0)">
   <g id="_457199360">
    <g>
     <polygon id="_4432866161" class="fil1" points="4.57708,1.96903 8.36335,5.7553 8.36848,5.76126 8.37346,5.76733 8.3783,5.77352 8.38299,5.77983 8.38752,5.78624 8.39191,5.79277 8.39613,5.79941 8.4002,5.80615 8.4041,5.81299 8.40784,5.81994 8.41141,5.82698 8.41481,5.83411 8.41804,5.84134 8.42109,5.84865 8.42396,5.85606 8.42665,5.86355 8.42917,5.87112 8.43149,5.87876 8.43362,5.88649 8.43557,5.89429 8.43732,5.90216 8.43887,5.9101 8.44023,5.91811 8.44139,5.92618 8.44233,5.93431 8.44308,5.9425 8.44361,5.95075 8.44394,5.95905 8.44404,5.9674 4.65778,2.18113 4.65767,2.17278 4.65735,2.16448 4.65681,2.15623 4.65607,2.14804 4.65512,2.13991 4.65396,2.13184 4.65261,2.12383 4.65105,2.11589 4.6493,2.10802 4.64735,2.10022 4.64522,2.09249 4.6429,2.08485 4.64039,2.07728 4.63769,2.06979 4.63482,2.06238 4.63177,2.05507 4.62854,2.04784 4.62514,2.0407 4.62157,2.03367 4.61783,2.02672 4.61393,2.01988 4.60987,2.01314 4.60564,2.0065 4.60126,1.99997 4.59672,1.99356 4.59203,1.98725 4.58719,1.98106 4.58221,1.97498 "/>
     <polygon id="_443287504" class="fil1" points="4.01393,1.6287 7.80019,5.41498 7.8039,5.41924 7.80752,5.42358 7.81102,5.428 7.81443,5.4325 7.81773,5.43709 7.82093,5.44174 7.82401,5.44648 7.82698,5.45129 7.82984,5.45617 7.83259,5.46112 7.83522,5.46613 7.83774,5.47122 7.84013,5.47637 7.84241,5.48159 7.84456,5.48686 7.84659,5.4922 7.84849,5.49759 7.85026,5.50304 7.85191,5.50855 7.85342,5.51411 7.8548,5.51972 7.85605,5.52539 7.85716,5.53109 7.85813,5.53685 7.85896,5.54265 7.85965,5.5485 7.8602,5.55439 7.8606,5.56031 7.86085,5.56628 4.07459,1.78001 4.07433,1.77404 4.07393,1.76811 4.07338,1.76223 4.07269,1.75638 4.07186,1.75058 4.07089,1.74482 4.06978,1.73911 4.06854,1.73345 4.06715,1.72784 4.06564,1.72228 4.064,1.71677 4.06222,1.71132 4.06032,1.70593 4.0583,1.70059 4.05614,1.69531 4.05387,1.6901 4.05147,1.68495 4.04896,1.67986 4.04632,1.67485 4.04357,1.66989 4.04072,1.66502 4.03774,1.66021 4.03466,1.65547 4.03146,1.65081 4.02816,1.64623 4.02476,1.64173 4.02125,1.63731 4.01763,1.63296 "/>
     <polygon id="_443287768" class="fil1" points="4.65778,4.95717 8.44404,8.74344 8.44394,8.75178 8.44361,8.76008 8.44308,8.76832 8.44233,8.77651 8.44139,8.78463 8.44023,8.7927 8.43888,8.80069 8.43732,8.80863 8.43557,8.81649 8.43363,8.82428 8.43149,8.832 8.42917,8.83964 8.42666,8.8472 8.42397,8.85467 8.4211,8.86207 8.41805,8.86937 8.41482,8.87659 8.41142,8.88371 8.40785,8.89074 8.40412,8.89767 8.40022,8.9045 8.39615,8.91123 8.39193,8.91785 8.38755,8.92437 8.38302,8.93077 8.37833,8.93706 8.37349,8.94324 8.36851,8.9493 8.36339,8.95524 8.35811,8.96105 8.35271,8.96674 8.34717,8.9723 4.5609,5.18603 4.56644,5.18047 4.57185,5.17478 4.57712,5.16896 4.58224,5.16303 4.58722,5.15697 4.59206,5.15079 4.59675,5.1445 4.60128,5.13809 4.60566,5.13158 4.60989,5.12496 4.61395,5.11823 4.61785,5.1114 4.62159,5.10446 4.62515,5.09744 4.62856,5.09031 4.63178,5.0831 4.63483,5.0758 4.6377,5.0684 4.64039,5.06093 4.6429,5.05337 4.64522,5.04572 4.64736,5.03801 4.6493,5.03022 4.65106,5.02235 4.65261,5.01442 4.65396,5.00643 4.65512,4.99836 4.65607,4.99024 4.65681,4.98205 4.65735,4.97381 4.65767,4.96551 "/>
     <polygon id="_443287792" class="fil1" points="4.5609,5.18603 8.34717,8.9723 8.34154,8.97768 8.3358,8.98293 8.32992,8.98804 8.32393,8.99301 8.31781,8.99784 8.31157,9.00253 8.30522,9.00708 8.29876,9.01148 8.29218,9.01572 8.2855,9.01982 8.27871,9.02376 8.27182,9.02754 8.26483,9.03117 8.25774,9.03463 8.25056,9.03793 8.24329,9.04106 8.23592,9.04401 8.22847,9.0468 8.22094,9.04941 8.21332,9.05184 8.20562,9.05409 8.19785,9.05617 8.19,9.05805 8.18208,9.05975 8.17409,9.06126 8.16604,9.06257 8.15792,9.06369 8.14974,9.06461 8.1415,9.06533 8.13321,9.06585 8.12486,9.06616 8.11646,9.06627 4.3302,5.28 4.33859,5.27989 4.34694,5.27958 4.35524,5.27906 4.36348,5.27834 4.37165,5.27742 4.37977,5.2763 4.38783,5.27498 4.39581,5.27348 4.40373,5.27178 4.41158,5.26989 4.41935,5.26782 4.42705,5.26557 4.43467,5.26314 4.4422,5.26053 4.44965,5.25774 4.45702,5.25478 4.46429,5.25165 4.47148,5.24836 4.47856,5.2449 4.48555,5.24127 4.49244,5.23749 4.49923,5.23355 4.50591,5.22945 4.51249,5.2252 4.51895,5.22081 4.5253,5.21626 4.53154,5.21157 4.53766,5.20674 4.54365,5.20176 4.54953,5.19665 4.55528,5.19141 "/>
     <polygon id="_443287480" class="fil1" points="4.3302,5.28 8.11646,9.06627 7.19971,9.06627 3.41344,5.28 "/>
     <polygon id="_443287720" class="fil1" points="3.41344,5.28 7.19971,9.06627 7.1996,9.06627 3.41333,5.28 "/>
     <polygon id="_443288776" class="fil1" points="3.41333,5.28 7.1996,9.06627 6.28276,9.06627 2.4965,5.28 "/>
     <polygon id="_443288656" class="fil1" points="2.4965,5.28 6.28276,9.06627 6.27438,9.06616 6.26604,9.06585 6.25776,9.06533 6.24953,9.06461 6.24136,9.06369 6.23325,9.06257 6.2252,9.06125 6.21722,9.05974 6.20931,9.05804 6.20146,9.05616 6.19369,9.05408 6.186,9.05183 6.17838,9.04939 6.17085,9.04678 6.1634,9.04399 6.15604,9.04103 6.14876,9.03789 6.14157,9.03459 6.13448,9.03113 6.12749,9.0275 6.1206,9.02372 6.11381,9.01977 6.10712,9.01567 6.10054,9.01142 6.09407,9.00702 6.08772,9.00246 6.08148,8.99777 6.07535,8.99293 6.06935,8.98795 2.28308,5.20168 2.28909,5.20666 2.29521,5.2115 2.30145,5.21619 2.30781,5.22074 2.31428,5.22515 2.32085,5.2294 2.32754,5.2335 2.33433,5.23744 2.34122,5.24123 2.34822,5.24486 2.35531,5.24832 2.36249,5.25162 2.36977,5.25476 2.37713,5.25772 2.38458,5.26051 2.39211,5.26312 2.39973,5.26556 2.40743,5.26781 2.4152,5.26989 2.42304,5.27177 2.43095,5.27347 2.43894,5.27498 2.44698,5.2763 2.45509,5.27742 2.46326,5.27834 2.47149,5.27906 2.47978,5.27958 2.48811,5.27989 "/>
     <polygon id="_443288392" class="fil1" points="4.07459,1.78001 7.86085,5.56628 7.86088,5.56719 7.8609,5.56809 7.86092,5.569 7.86094,5.56991 7.86095,5.57082 7.86096,5.57173 7.86096,5.57265 7.86096,5.57356 4.0747,1.78729 4.0747,1.78637 4.07469,1.78546 4.07468,1.78455 4.07467,1.78364 4.07465,1.78273 4.07463,1.78182 4.07461,1.78091 "/>
     <polygon id="_443288128" class="fil1" points="4.0747,1.78729 7.86096,5.57356 7.86096,5.64406 4.0747,1.85778 "/>
     <polygon id="_443288464" class="fil1" points="4.65778,2.18113 8.44404,5.9674 8.44404,8.74344 4.65778,4.95717 "/>
    </g>
    <path id="_457167800" class="fil1" d="M4.56085 1.95193c0.059874,0.0587795 0.0969213,0.139862 0.0969213,0.229205l0 2.77604c0,0.0893031 -0.0370315,0.170232 -0.096878,0.228866 -0.0592559,0.0580512 -0.140854,0.0939646 -0.230701,0.0939646l-0.916752 0 -0.000114173 0 -0.916835 0c-0.0896969,0 -0.171358,-0.0359528 -0.230673,-0.094063 -0.0598307,-0.0586102 -0.096937,-0.139496 -0.096937,-0.228768l0 -2.77604c0,-0.0893031 0.037126,-0.170346 0.0969882,-0.229106 0.0592756,-0.058189 0.140913,-0.0942402 0.230622,-0.0942402l0.160752 0 0.0952402 0 0 -0.0704961c0,-0.00243701 3.54331e-005,-0.0048622 0.000110236,-0.00727953 0.0019252,-0.0637638 0.0290394,-0.121217 0.0719409,-0.163217 0.0442913,-0.0433622 0.105138,-0.070126 0.172079,-0.070126l0.833425 0c0.0670984,0 0.127945,0.0266378 0.172161,0.0697874 0.043189,0.0421496 0.0704488,0.0997244 0.0723819,0.163555 7.48031e-005,0.00241732 0.000110236,0.00484252 0.000110236,0.00727953l0 0.0704961 0.0947165 0 0.160783 0c0.0898661,0 0.171441,0.0360079 0.230657,0.0941417z"/>
   </g>
  </g>
  <path class="fil2" d="M3.41333 -3.93701e-006c1.88513,0 3.41333,1.5282 3.41333,3.41333 0,1.88513 -1.5282,3.41333 -3.41333,3.41333 -1.88513,0 -3.41333,-1.5282 -3.41333,-3.41333 0,-1.88513 1.5282,-3.41333 3.41333,-3.41333z"/>
  <path class="fil3" d="M2.75249 1.87185l0 -0.00268898 0 -0.0818701c0,-0.0666654 0.0275236,-0.126906 0.0720512,-0.170496 0.0442913,-0.0433622 0.105138,-0.070126 0.172079,-0.070126l0.833425 0c0.0670984,0 0.127945,0.0266378 0.172161,0.0697874 0.0448228,0.0437441 0.0724921,0.104106 0.0724921,0.170835l0 0.084378 0 0.000181102 0.0947165 0 -0.0947165 0 -1.32221 0z"/>
  <path class="fil4" d="M2.75249 1.87185l0 -0.00268898 0 -0.0818701c0,-0.00243701 4.33071e-005,-0.00485827 0.000114173,-0.00727953l1.32198 0c7.08661e-005,0.00241732 0.000114173,0.00484646 0.000114173,0.00727953l0 0.084378 0 0.000181102 0.0932362 0 -0.0932362 0 -1.32221 0z"/>
  <path class="fil5" d="M4.16941 1.85778l0.160783 0c0.0898661,0 0.171441,0.0360079 0.230657,0.0941417 0.059874,0.0587795 0.0969213,0.139862 0.0969213,0.229205l0 2.77604c0,0.0893031 -0.0370315,0.170232 -0.096878,0.228866 -0.0592559,0.0580512 -0.140854,0.0939646 -0.230701,0.0939646l-0.916752 0 -0.000114173 0 0 -3.42221 0.00275591 0 0.65861 0 0.0947165 0zm-0.756083 3.42221l-0.916835 0c-0.0896969,0 -0.171358,-0.0359528 -0.230673,-0.094063 -0.0598307,-0.0586102 -0.096937,-0.139496 -0.096937,-0.228768l0 -2.77604c0,-0.0893031 0.037126,-0.170346 0.0969882,-0.229106 0.0592756,-0.058189 0.140913,-0.0942402 0.230622,-0.0942402l0.160752 0 0.0952402 0 0.660843 0 0 3.42221z"/>
  <path class="fil6" d="M3.41333 5.28l-0.916835 0c-0.0896969,0 -0.171358,-0.0359528 -0.230673,-0.094063 -0.0598307,-0.0586102 -0.096937,-0.139496 -0.096937,-0.228768l0 -2.77604c0,-0.0893031 0.037126,-0.170346 0.0969882,-0.229106 0.0592756,-0.058189 0.140913,-0.0942402 0.230622,-0.0942402l0.160752 0 0.0952402 0 0.660843 0 0 3.42221z"/>
  <path class="fil7" d="M4.16941 1.85778l0.160783 0c0.0898661,0 0.171441,0.0360079 0.230657,0.0941417 0.059874,0.0587795 0.0969213,0.139862 0.0969213,0.229205l0 2.77604c0,0.0893031 -0.0370315,0.170232 -0.096878,0.228866 -0.0592559,0.0580512 -0.140854,0.0939646 -0.230701,0.0939646l-0.916752 0 -0.000114173 0 0 -3.42221 0.00275591 0 0.65861 0 0.0947165 0z"/>
  <rect class="fil8" x="2.43138" y="2.21792" width="1.96389" height="2.70193"/>
  <polygon class="fil9" points="2.55778,4.17125 4.26888,4.17125 4.34666,4.17125 4.34666,4.24125 4.34666,4.80125 4.34666,4.87125 4.26888,4.87125 2.55778,4.87125 2.48,4.87125 2.48,4.80125 2.48,4.24125 2.48,4.17125 "/>
  <polygon class="fil10" points="3.41333,4.17125 4.26888,4.17125 4.34666,4.17125 4.34666,4.24125 4.34666,4.80125 4.34666,4.87125 4.26888,4.87125 3.41333,4.87125 "/>
  <polygon class="fil10" points="4.26888,3.23792 2.55778,3.23792 2.48,3.23792 2.48,3.30792 2.48,3.86791 2.48,3.93792 2.55778,3.93792 4.26888,3.93792 4.34666,3.93792 4.34666,3.86791 4.34666,3.30792 4.34666,3.23792 "/>
  <polygon class="fil9" points="3.41333,3.23792 2.55778,3.23792 2.48,3.23792 2.48,3.30792 2.48,3.86791 2.48,3.93792 2.55778,3.93792 3.41333,3.93792 "/>
  <polygon class="fil11" points="2.78349,4.60164 3.48884,3.93634 3.24071,3.87533 3.64493,3.5258 3.16313,3.40535 3.80975,2.68265 3.4848,2.68265 2.82235,3.49604 3.2829,3.56654 2.92222,3.9273 3.10274,3.96211 3.199,3.98068 2.77219,4.60987 "/>
  <polygon class="fil12" points="4.15588,2.68265 3.549,3.36432 3.98472,3.48565 3.55605,3.87196 3.74381,3.88715 2.76193,4.60164 3.46728,3.93634 3.21914,3.87533 3.62336,3.5258 3.14156,3.40535 3.78818,2.68265 3.80294,2.68265 "/>
 </g>
</svg>
