<?xml version="1.0" encoding="UTF-8"?>
<!DOCTYPE svg PUBLIC "-//W3C//DTD SVG 1.1//EN" "http://www.w3.org/Graphics/SVG/1.1/DTD/svg11.dtd">
<!-- Creator: CorelDRAW -->
<svg xmlns="http://www.w3.org/2000/svg" xml:space="preserve" width="2048px" height="2048px" style="shape-rendering:geometricPrecision; text-rendering:geometricPrecision; image-rendering:optimizeQuality; fill-rule:evenodd; clip-rule:evenodd"
viewBox="0 0 2048 2048"
 xmlns:xlink="http://www.w3.org/1999/xlink">
 <defs>
  <style type="text/css">
   <![CDATA[
    .fil2 {fill:none}
    .fil3 {fill:#00B8D4}
    .fil5 {fill:#03A9C2}
    .fil6 {fill:#A4D1E6}
    .fil1 {fill:#AFB42B}
    .fil4 {fill:#B3E5FC}
    .fil0 {fill:#C0CA33}
   ]]>
  </style>
   <clipPath id="id0">
    <path d="M1024 -0.0011811c565.541,0 1024,458.461 1024,1024 0,565.541 -458.461,1024 -1024,1024 -565.541,0 -1024,-458.461 -1024,-1024 0,-565.541 458.461,-1024 1024,-1024z"/>
   </clipPath>
 </defs>
 <g id="Layer_x0020_1">
  <metadata id="CorelCorpID_0Corel-Layer"/>
  <path class="fil0" d="M1024 -0.0011811c565.541,0 1024,458.461 1024,1024 0,565.541 -458.461,1024 -1024,1024 -565.541,0 -1024,-458.461 -1024,-1024 0,-565.541 458.461,-1024 1024,-1024z"/>
  <g style="clip-path:url(#id0)">
   <g id="_466413712">
    <g>
     <polygon id="_4625826641" class="fil1" points="1584,1024 2719.88,2159.88 2719.88,2413.57 1584,1277.69 "/>
     <polygon id="_462581584" class="fil1" points="1584,1277.69 2719.88,2413.57 2719.86,2415.15 2719.8,2416.72 2719.7,2418.28 2719.56,2419.82 2719.39,2421.36 2719.17,2422.89 2718.92,2424.4 2718.63,2425.9 2718.31,2427.39 2717.95,2428.86 2717.55,2430.32 2717.12,2431.77 2716.65,2433.2 2716.15,2434.62 2715.62,2436.01 2715.05,2437.4 2714.45,2438.76 2713.82,2440.11 2713.15,2441.44 2712.46,2442.76 2711.74,2444.05 2710.98,2445.32 2710.2,2446.58 2709.38,2447.81 2708.54,2449.02 2707.67,2450.22 2706.78,2451.39 2705.85,2452.53 2704.9,2453.66 2703.92,2454.76 2702.92,2455.84 2701.89,2456.89 1566.01,1321.01 1567.04,1319.95 1568.04,1318.88 1569.02,1317.78 1569.97,1316.65 1570.89,1315.5 1571.79,1314.33 1572.66,1313.14 1573.5,1311.93 1574.32,1310.7 1575.1,1309.44 1575.86,1308.17 1576.58,1306.87 1577.27,1305.56 1577.94,1304.23 1578.57,1302.88 1579.17,1301.52 1579.74,1300.13 1580.27,1298.73 1580.77,1297.32 1581.24,1295.89 1581.67,1294.44 1582.06,1292.98 1582.43,1291.51 1582.75,1290.02 1583.04,1288.52 1583.29,1287 1583.51,1285.48 1583.68,1283.94 1583.82,1282.39 1583.92,1280.83 1583.98,1279.27 "/>
     <polygon id="_462574912" class="fil1" points="1566.01,1321.01 2701.89,2456.89 2700.84,2457.92 2699.76,2458.92 2698.66,2459.9 2697.53,2460.85 2696.39,2461.77 2695.22,2462.67 2694.03,2463.54 2692.81,2464.38 2691.58,2465.2 2690.33,2465.98 2689.05,2466.74 2687.76,2467.46 2686.44,2468.15 2685.11,2468.82 2683.77,2469.45 2682.4,2470.05 2681.02,2470.62 2679.62,2471.15 2678.2,2471.65 2676.77,2472.12 2675.32,2472.55 2673.86,2472.94 2672.39,2473.31 2670.9,2473.63 2669.4,2473.92 2667.89,2474.17 2666.36,2474.39 2664.82,2474.56 2663.28,2474.7 2661.72,2474.8 2660.15,2474.86 2658.57,2474.88 1522.69,1339 1524.27,1338.98 1525.84,1338.92 1527.39,1338.82 1528.94,1338.68 1530.48,1338.5 1532.01,1338.29 1533.52,1338.04 1535.02,1337.75 1536.51,1337.42 1537.98,1337.06 1539.44,1336.67 1540.89,1336.23 1542.32,1335.77 1543.74,1335.27 1545.13,1334.73 1546.52,1334.17 1547.88,1333.57 1549.23,1332.94 1550.56,1332.27 1551.88,1331.58 1553.17,1330.85 1554.44,1330.1 1555.7,1329.32 1556.93,1328.5 1558.14,1327.66 1559.34,1326.79 1560.51,1325.89 1561.65,1324.97 1562.78,1324.02 1563.88,1323.04 1564.96,1322.04 "/>
     <polygon id="_462573592" class="fil1" points="557.111,1245.82 1692.99,2381.71 1637.8,2381.71 501.916,1245.82 "/>
     <polygon id="_462572488" class="fil1" points="501.916,1245.82 1637.8,2381.71 1635.85,2381.66 1633.93,2381.51 1632.03,2381.27 1630.17,2380.93 1628.33,2380.51 1626.53,2380 1624.77,2379.4 1623.05,2378.72 1621.37,2377.96 1619.74,2377.12 1618.15,2376.2 1616.61,2375.22 1615.13,2374.16 1613.69,2373.03 1612.32,2371.84 476.436,1235.96 477.812,1237.15 479.244,1238.28 480.73,1239.33 482.269,1240.32 483.857,1241.24 485.491,1242.07 487.171,1242.84 488.892,1243.52 490.653,1244.11 492.452,1244.63 494.285,1245.05 496.15,1245.38 498.045,1245.63 499.968,1245.77 "/>
     <polygon id="_462571696" class="fil1" points="1522.69,1339 2658.57,2474.88 1754.3,2474.88 618.421,1339 "/>
     <polygon id="_462572104" class="fil1" points="618.421,1339 1754.3,2474.88 1752.72,2474.86 1751.16,2474.8 1749.6,2474.7 1748.05,2474.56 1746.51,2474.39 1744.99,2474.17 1743.47,2473.92 1741.97,2473.63 1740.48,2473.31 1739.01,2472.94 1737.55,2472.55 1736.1,2472.12 1734.67,2471.65 1733.26,2471.15 1731.86,2470.62 1730.47,2470.05 1729.11,2469.45 1727.76,2468.82 1726.43,2468.15 1725.12,2467.46 1723.82,2466.74 1722.55,2465.98 1721.3,2465.2 1720.06,2464.38 1718.85,2463.54 1717.66,2462.67 1716.49,2461.77 1715.34,2460.85 1714.22,2459.9 578.334,1324.02 579.459,1324.97 580.606,1325.89 581.775,1326.79 582.967,1327.66 584.18,1328.5 585.414,1329.32 586.668,1330.1 587.941,1330.85 589.235,1331.58 590.547,1332.27 591.878,1332.94 593.227,1333.57 594.593,1334.17 595.976,1334.73 597.376,1335.27 598.791,1335.77 600.221,1336.23 601.668,1336.67 603.128,1337.06 604.603,1337.42 606.09,1337.75 607.591,1338.04 609.104,1338.29 610.63,1338.5 612.167,1338.68 613.715,1338.82 615.274,1338.92 616.843,1338.98 "/>
     <polygon id="_462572368" class="fil1" points="1569.02,730.224 2704.9,1866.11 2705.85,1867.23 2706.78,1868.38 2707.67,1869.55 2708.54,1870.74 2709.38,1871.95 2710.2,1873.19 2710.98,1874.44 2711.74,1875.71 2712.46,1877.01 2713.15,1878.32 2713.82,1879.65 2714.45,1881 2715.05,1882.37 2715.62,1883.75 2716.15,1885.15 2716.65,1886.56 2717.12,1887.99 2717.55,1889.44 2717.95,1890.9 2718.31,1892.38 2718.63,1893.86 2718.92,1895.36 2719.17,1896.88 2719.39,1898.4 2719.56,1899.94 2719.7,1901.49 2719.8,1903.05 2719.86,1904.62 2719.88,1906.19 1584,770.311 1583.98,768.733 1583.92,767.164 1583.82,765.605 1583.68,764.057 1583.51,762.52 1583.29,760.994 1583.04,759.481 1582.75,757.98 1582.43,756.493 1582.06,755.018 1581.67,753.558 1581.24,752.111 1580.77,750.681 1580.27,749.266 1579.74,747.866 1579.17,746.483 1578.57,745.117 1577.94,743.768 1577.27,742.437 1576.58,741.125 1575.86,739.831 1575.1,738.558 1574.32,737.304 1573.5,736.069 1572.66,734.856 1571.79,733.665 1570.89,732.495 1569.97,731.349 "/>
     <polygon id="_462572848" class="fil1" points="1584,770.311 2719.88,1906.19 2719.88,2159.88 1584,1024 "/>
    </g>
    <path id="_466413448" class="fil1" d="M1584 1024l0 253.689c0,16.8839 -6.89174,32.2181 -17.9917,43.3193 -11.1012,11.1 -26.4366,17.9917 -43.3205,17.9917l-904.268 0c-16.8839,0 -32.2181,-6.89174 -43.3181,-17.9917 -11.1012,-11.1012 -17.9917,-26.4355 -17.9917,-43.3193l0 -31.865 -55.1953 0c-10.4516,0 -19.9358,-4.26024 -26.7969,-11.1201 -6.85985,-6.86103 -11.1201,-16.3453 -11.1201,-26.7969l0 -183.907 0 -183.905c0,-10.4516 4.26024,-19.9358 11.1201,-26.7969 6.86103,-6.85985 16.3453,-11.1201 26.7969,-11.1201l55.1953 0 0 -31.8662c0,-16.8839 6.89056,-32.2181 17.9917,-43.3181 11.1,-11.1012 26.4343,-17.9917 43.3181,-17.9917l904.268 0c16.8839,0 32.2193,6.89056 43.3205,17.9917 11.1,11.1 17.9917,26.4343 17.9917,43.3181l0 253.688z"/>
   </g>
  </g>
  <path class="fil2" d="M1024 -0.0011811c565.541,0 1024,458.461 1024,1024 0,565.541 -458.461,1024 -1024,1024 -565.541,0 -1024,-458.461 -1024,-1024 0,-565.541 458.461,-1024 1024,-1024z"/>
  <path class="fil3" d="M618.421 709.001l904.268 0c16.8839,0 32.2193,6.89056 43.3205,17.9917 11.1,11.1 17.9917,26.4343 17.9917,43.3181l0 507.377c0,16.8839 -6.89174,32.2181 -17.9917,43.3193 -11.1012,11.1 -26.4366,17.9917 -43.3205,17.9917l-904.268 0c-16.8839,0 -32.2181,-6.89174 -43.3181,-17.9917 -11.1012,-11.1012 -17.9917,-26.4355 -17.9917,-43.3193l0 -31.865 -55.1953 0c-10.4516,0 -19.9358,-4.26024 -26.7969,-11.1201 -6.85985,-6.86103 -11.1201,-16.3453 -11.1201,-26.7969l0 -367.812c0,-10.4516 4.26024,-19.9358 11.1201,-26.7969 6.86103,-6.85985 16.3453,-11.1201 26.7969,-11.1201l55.1953 0 0 -31.8662c0,-16.8839 6.89056,-32.2181 17.9917,-43.3181 11.1,-11.1012 26.4343,-17.9917 43.3181,-17.9917z"/>
  <polygon class="fil4" points="1327.33,803.792 1467.33,803.792 1489.2,803.792 1489.2,825.667 1489.2,1222.33 1489.2,1244.21 1467.33,1244.21 1327.33,1244.21 1305.46,1244.21 1305.46,1222.33 1305.46,825.667 1305.46,803.792 "/>
  <polygon class="fil4" points="893.721,803.792 1033.72,803.792 1055.6,803.792 1055.6,825.667 1055.6,1222.33 1055.6,1244.21 1033.72,1244.21 893.721,1244.21 871.846,1244.21 871.846,1222.33 871.846,825.667 871.846,803.792 "/>
  <polygon class="fil4" points="1110.53,803.792 1250.52,803.792 1272.4,803.792 1272.4,825.667 1272.4,1222.33 1272.4,1244.21 1250.52,1244.21 1110.53,1244.21 1088.65,1244.21 1088.65,1222.33 1088.65,825.667 1088.65,803.792 "/>
  <path class="fil5" d="M1584 1024l0 253.689c0,16.8839 -6.89174,32.2181 -17.9917,43.3193 -11.1012,11.1 -26.4366,17.9917 -43.3205,17.9917l-904.268 0c-16.8839,0 -32.2181,-6.89174 -43.3181,-17.9917 -11.1012,-11.1012 -17.9917,-26.4355 -17.9917,-43.3193l0 -31.865 -55.1953 0c-10.4516,0 -19.9358,-4.26024 -26.7969,-11.1201 -6.85985,-6.86103 -11.1201,-16.3453 -11.1201,-26.7969l0 -183.907 1120 0z"/>
  <polygon class="fil6" points="1489.2,1024 1489.2,1222.33 1489.2,1244.21 1467.33,1244.21 1327.33,1244.21 1305.46,1244.21 1305.46,1222.33 1305.46,1024 "/>
  <polygon class="fil6" points="1055.6,1024 1055.6,1222.33 1055.6,1244.21 1033.72,1244.21 893.721,1244.21 871.846,1244.21 871.846,1222.33 871.846,1024 "/>
  <polygon class="fil6" points="1272.4,1024 1272.4,1222.33 1272.4,1244.21 1250.52,1244.21 1110.53,1244.21 1088.65,1244.21 1088.65,1222.33 1088.65,1024 "/>
 </g>
</svg>
