<?xml version="1.0" encoding="UTF-8"?>
<!DOCTYPE svg PUBLIC "-//W3C//DTD SVG 1.1//EN" "http://www.w3.org/Graphics/SVG/1.1/DTD/svg11.dtd">
<!-- Creator: CorelDRAW -->
<svg xmlns="http://www.w3.org/2000/svg" xml:space="preserve" width="2048px" height="2048px" style="shape-rendering:geometricPrecision; text-rendering:geometricPrecision; image-rendering:optimizeQuality; fill-rule:evenodd; clip-rule:evenodd"
viewBox="0 0 2048 2048"
 xmlns:xlink="http://www.w3.org/1999/xlink">
 <defs>
  <style type="text/css">
   <![CDATA[
    .fil2 {fill:none}
    .fil1 {fill:#3949AB}
    .fil4 {fill:#689F38}
    .fil0 {fill:#7986CB}
    .fil3 {fill:#7CB342}
    .fil6 {fill:#C0CA33}
    .fil5 {fill:#EEFF41}
   ]]>
  </style>
   <clipPath id="id0">
    <path d="M1024 -0.0011811c565.539,0 1024,458.462 1024,1024 0,565.539 -458.462,1024 -1024,1024 -565.539,0 -1024,-458.462 -1024,-1024 0,-565.539 458.462,-1024 1024,-1024z"/>
   </clipPath>
 </defs>
 <g id="Layer_x0020_1">
  <metadata id="CorelCorpID_0Corel-Layer"/>
  <path class="fil0" d="M1024 -0.0011811c565.539,0 1024,458.462 1024,1024 0,565.539 -458.462,1024 -1024,1024 -565.539,0 -1024,-458.462 -1024,-1024 0,-565.539 458.462,-1024 1024,-1024z"/>
  <g style="clip-path:url(#id0)">
   <g id="_466499624">
    <g>
     <polygon id="_4620421761" class="fil1" points="1462.52,744.953 2598.4,1880.83 2600.67,1883.51 2602.8,1886.28 2604.79,1889.15 2606.63,1892.11 2608.31,1895.16 2609.84,1898.29 2611.21,1901.5 2612.41,1904.78 2613.44,1908.14 2614.29,1911.56 2614.97,1915.04 2615.45,1918.57 2615.75,1922.16 2615.85,1925.8 1479.96,789.917 1479.87,786.281 1479.57,782.691 1479.08,779.154 1478.41,775.673 1477.56,772.254 1476.53,768.899 1475.33,765.615 1473.96,762.405 1472.43,759.273 1470.75,756.225 1468.91,753.264 1466.92,750.396 1464.79,747.624 "/>
     <polygon id="_462012656" class="fil1" points="1479.96,789.917 2615.85,1925.8 2615.85,2020.12 1479.96,884.234 "/>
     <polygon id="_462030776" class="fil1" points="1569.94,901.392 2705.82,2037.27 2707.33,2039.06 2708.75,2040.91 2710.07,2042.82 2711.29,2044.8 2712.41,2046.84 2713.43,2048.93 2714.34,2051.08 2715.13,2053.27 2715.82,2055.52 2716.38,2057.81 2716.83,2060.14 2717.15,2062.5 2717.35,2064.91 2717.42,2067.34 1581.53,931.462 1581.47,929.025 1581.27,926.622 1580.95,924.253 1580.5,921.924 1579.94,919.637 1579.25,917.392 1578.45,915.197 1577.55,913.05 1576.53,910.957 1575.41,908.92 1574.19,906.942 1572.86,905.026 1571.45,903.175 "/>
     <polygon id="_462021176" class="fil1" points="1581.53,931.462 2717.42,2067.34 2717.42,2159.88 1581.53,1024 "/>
     <polygon id="_462018560" class="fil1" points="1584,1024 2719.88,2159.88 2719.88,2268.75 1584,1132.86 "/>
     <polygon id="_462038336" class="fil1" points="1584,1132.86 2719.88,2268.75 2719.82,2270.98 2719.62,2273.19 2719.3,2275.37 2718.85,2277.51 2718.29,2279.62 2717.6,2281.68 2716.8,2283.7 2715.9,2285.67 2714.88,2287.6 2713.76,2289.47 2712.53,2291.29 2711.21,2293.05 2709.8,2294.76 2708.29,2296.4 2706.69,2297.97 2705.01,2299.48 2703.24,2300.92 2701.4,2302.29 2699.48,2303.57 2697.49,2304.78 2695.42,2305.91 2693.29,2306.96 2691.1,2307.92 2688.84,2308.79 2686.53,2309.56 2684.17,2310.25 2681.75,2310.83 2679.29,2311.32 2676.78,2311.7 2674.23,2311.97 2671.64,2312.14 2669.02,2312.2 1533.14,1176.32 1535.76,1176.26 1538.35,1176.09 1540.9,1175.82 1543.41,1175.44 1545.87,1174.95 1548.29,1174.37 1550.65,1173.68 1552.96,1172.91 1555.22,1172.04 1557.41,1171.08 1559.54,1170.03 1561.6,1168.9 1563.6,1167.69 1565.52,1166.4 1567.36,1165.04 1569.13,1163.6 1570.81,1162.09 1572.41,1160.52 1573.92,1158.87 1575.33,1157.17 1576.65,1155.41 1577.88,1153.59 1579,1151.72 1580.01,1149.79 1580.92,1147.82 1581.72,1145.8 1582.4,1143.73 1582.97,1141.63 1583.42,1139.49 1583.74,1137.31 1583.94,1135.1 "/>
     <polygon id="_462025688" class="fil1" points="1533.14,1176.32 2669.02,2312.2 2618.31,2312.2 1482.43,1176.32 "/>
     <polygon id="_462043184" class="fil1" points="1482.43,1176.32 2618.31,2312.2 2618.31,2399.4 1482.43,1263.51 "/>
     <polygon id="_462017240" class="fil1" points="1482.43,1263.51 2618.31,2399.4 2618.21,2402.74 2617.92,2406.05 2617.43,2409.31 2616.76,2412.52 2615.91,2415.67 2614.88,2418.76 2613.68,2421.79 2612.31,2424.75 2610.78,2427.64 2609.09,2430.45 2607.25,2433.19 2605.26,2435.84 2603.14,2438.4 2600.87,2440.86 2598.47,2443.23 2595.94,2445.5 2593.29,2447.67 2590.52,2449.72 2587.64,2451.66 2584.64,2453.49 2581.55,2455.19 2578.35,2456.76 2575.06,2458.21 2571.69,2459.52 2568.22,2460.69 2564.68,2461.72 2561.06,2462.6 2557.37,2463.33 2553.62,2463.91 2549.81,2464.33 2545.94,2464.58 2542.02,2464.66 1406.14,1328.78 1410.06,1328.7 1413.93,1328.44 1417.74,1328.03 1421.49,1327.45 1425.18,1326.72 1428.8,1325.84 1432.34,1324.81 1435.8,1323.64 1439.18,1322.33 1442.47,1320.88 1445.67,1319.31 1448.76,1317.6 1451.75,1315.78 1454.64,1313.84 1457.41,1311.79 1460.06,1309.62 1462.59,1307.35 1464.99,1304.98 1467.25,1302.51 1469.38,1299.95 1471.37,1297.3 1473.21,1294.57 1474.9,1291.76 1476.43,1288.87 1477.79,1285.91 1479,1282.88 1480.03,1279.79 1480.88,1276.63 1481.55,1273.43 1482.04,1270.17 1482.33,1266.86 "/>
     <polygon id="_462043448" class="fil1" points="466.466,1049.4 1602.35,2185.28 1599.88,2185.28 463.999,1049.4 "/>
     <polygon id="_462031160" class="fil1" points="542.6,1328.78 1678.48,2464.66 1674.56,2464.58 1670.7,2464.33 1666.89,2463.91 1663.14,2463.33 1659.46,2462.6 1655.84,2461.72 1652.31,2460.69 1648.85,2459.52 1645.48,2458.21 1642.2,2456.76 1639.01,2455.19 1635.92,2453.49 1632.93,2451.66 1630.06,2449.72 1627.29,2447.67 1624.65,2445.5 488.769,1309.62 491.412,1311.79 494.175,1313.84 497.052,1315.78 500.037,1317.6 503.125,1319.31 506.314,1320.88 509.596,1322.33 512.969,1323.64 516.426,1324.81 519.963,1325.84 523.576,1326.72 527.259,1327.45 531.007,1328.03 534.818,1328.44 538.683,1328.7 "/>
     <polygon id="_462022832" class="fil1" points="1406.14,1328.78 2542.02,2464.66 1678.48,2464.66 542.6,1328.78 "/>
    </g>
    <path id="_466503176" class="fil1" d="M540.134 719.217l863.536 0c42.078,0 76.2945,31.6701 76.2945,70.6997l0 94.317 50.7048 0c28.1587,0 50.8642,21.0768 50.8642,47.2276l0 92.5371 2.46732 0 0 108.865c0,24.0272 -22.7067,43.4528 -50.8654,43.4528l-50.7048 0 0 87.1973c0,35.928 -34.2284,65.2689 -76.2945,65.2689l-863.536 0c-42.039,0 -76.1339,-29.341 -76.1339,-65.2689l0 -214.115 -2.46732 0 0 -0.900001 0 -258.581c0,-39.0296 34.0961,-70.6997 76.1351,-70.6997z"/>
   </g>
  </g>
  <path class="fil2" d="M1024 -0.0011811c565.539,0 1024,458.462 1024,1024 0,565.539 -458.462,1024 -1024,1024 -565.539,0 -1024,-458.462 -1024,-1024 0,-565.539 458.462,-1024 1024,-1024z"/>
  <path class="fil3" d="M1581.53 931.462l0 117.821 0 0.115748 -1117.54 0 0 -0.900001 0 -258.581c0,-39.0296 34.0949,-70.6997 76.1351,-70.6997l863.536 0c42.0792,0 76.2945,31.6701 76.2945,70.6997l0 94.3158 50.7048 0c28.1575,0 50.8642,21.078 50.8642,47.2288z"/>
  <path class="fil4" d="M1584 1024l0 108.865c0,24.0272 -22.7079,43.4528 -50.8654,43.4528l-50.7048 0 0 87.1973c0,35.928 -34.2284,65.2689 -76.2934,65.2689l-863.538 0c-42.039,0 -76.1339,-29.341 -76.1339,-65.2689l0 -239.515 1117.54 0z"/>
  <path class="fil5" d="M732.462 1124.4c-9.91772,9.91772 -9.91772,25.9984 0,35.9162 9.91654,9.91654 25.9984,9.91654 35.915,0l187.309 -187.309 18.9508 151.597 25.2 -3.07677 -25.2024 3.15118c1.74095,13.9181 14.4354,23.791 28.3536,22.0512 5.93977,-0.741733 11.1413,-3.48071 15.0201,-7.45749l215.674 -215.674c9.91654,-9.91654 9.91654,-25.9973 0,-35.915 -9.91772,-9.91654 -25.9984,-9.91654 -35.9162,0l-179.177 179.178 -18.8669 -150.923c-0.53504,-5.67756 -2.97638,-11.211 -7.3252,-15.5587 -9.91772,-9.91772 -26.0008,-9.91772 -35.9185,0l0.00236221 0.00236221 -224.019 224.017z"/>
  <path class="fil6" d="M732.462 1124.4c-9.91772,9.91772 -9.91772,25.9984 0,35.9162 9.91654,9.91654 25.9984,9.91654 35.915,0l136.318 -136.318 -71.8312 0 -100.402 100.402zm229.598 -100.402l12.5764 100.606 25.2 -3.07677 -25.2024 3.15118c1.74095,13.9181 14.4354,23.791 28.3536,22.0512 5.93977,-0.741733 11.1413,-3.48071 15.0201,-7.45749l115.274 -115.274 -71.8312 0 -42.8622 42.8634 -5.35867 -42.8634 -51.1701 0z"/>
 </g>
</svg>
