<svg id="line" xmlns="http://www.w3.org/2000/svg" viewBox="0 0 64 64"><defs><style>.cls-1{fill:#c4a2fc;}.cls-2{fill:#151a6a;}</style></defs><path class="cls-1" d="M59,26H31a3,3,0,0,0-3,3v3H62V29A3,3,0,0,0,59,26Z"/><path class="cls-1" d="M39,15.5A2.51,2.51,0,0,0,36.24,13,2.61,2.61,0,0,0,34,15.65V24h5Z"/><path class="cls-1" d="M56,15.5A2.51,2.51,0,0,0,53.24,13,2.61,2.61,0,0,0,51,15.65V24h5Z"/><path class="cls-1" d="M28,42A17,17,0,0,0,41,58.51V62a1,1,0,0,0,1,1h6a1,1,0,0,0,1-1V58.51A17,17,0,0,0,62,42V34H28Zm13.88,2.75,3-5.25a1,1,0,0,1,1.74,1l-2.4,4.19,3.35,1.11a1,1,0,0,1,.55,1.45l-3,5.25a1,1,0,1,1-1.74-1l2.4-4.19L42.43,46.2A1,1,0,0,1,41.88,44.75Z"/><path class="cls-2" d="M33,5H30V3a1,1,0,0,0,0-2H24a1,1,0,0,0,0,2V5H14V3a1,1,0,0,0,0-2H8A1,1,0,0,0,8,3V5H5A3,3,0,0,0,2,8V48a3,3,0,0,0,3,3H33a3,3,0,0,0,3-3V8A3,3,0,0,0,33,5ZM26,3h2V5H26ZM10,3h2V5H10ZM5,7H33a1,1,0,0,1,1,1v9H4V8A1,1,0,0,1,5,7ZM33,49H5a1,1,0,0,1-1-1V19H34V48A1,1,0,0,1,33,49Z"/><path class="cls-2" d="M9,13h1v1a1,1,0,0,0,2,0V13h1a1,1,0,0,0,0-2H12V10a1,1,0,0,0-2,0v1H9a1,1,0,0,0,0,2Z"/><path class="cls-2" d="M25,13h4a1,1,0,0,0,0-2H25a1,1,0,0,0,0,2Z"/><path class="cls-2" d="M22.32,34.05l-4.85-1.61,3.4-5.94a1,1,0,0,0-1.74-1l-4,7A1,1,0,0,0,15.68,34l4.85,1.61-3.4,5.94a1,1,0,0,0,1.74,1l4-7A1,1,0,0,0,22.32,34.05Z"/></svg>